<svg width="108" height="28" viewBox="0 0 108 28" fill="none" xmlns="http://www.w3.org/2000/svg">
  <defs>
    <!-- Main gradient for text -->
    <linearGradient id="textGradient" x1="0%" y1="0%" x2="100%" y2="0%">
      <stop offset="0%" style="stop-color:#6c6cff;stop-opacity:1" />
      <stop offset="40%" style="stop-color:#22d3ee;stop-opacity:1" />
      <stop offset="100%" style="stop-color:#a855f7;stop-opacity:1" />
    </linearGradient>
    
    <!-- Glow effect -->
    <filter id="glow">
      <feGaussianBlur stdDeviation="1" result="coloredBlur"/>
      <feMerge> 
        <feMergeNode in="coloredBlur"/>
        <feMergeNode in="SourceGraphic"/>
      </feMerge>
    </filter>
    
    <!-- Icon gradient -->
    <linearGradient id="iconGradient" x1="0%" y1="0%" x2="100%" y2="100%">
      <stop offset="0%" style="stop-color:#22d3ee;stop-opacity:1" />
      <stop offset="100%" style="stop-color:#6c6cff;stop-opacity:1" />
    </linearGradient>
  </defs>
  
  <!-- Icon - Modern sync/cloud symbol -->
  <g transform="translate(0, 4)">
    <path d="M6 10c0-3.3 2.7-6 6-6s6 2.7 6 6c1.1 0 2 .9 2 2s-.9 2-2 2H6c-1.1 0-2-.9-2-2s.9-2 2-2z" 
          fill="url(#iconGradient)" opacity="0.9"/>
    <circle cx="8" cy="8" r="1" fill="#22d3ee" opacity="0.6"/>
    <circle cx="16" cy="8" r="1" fill="#a855f7" opacity="0.6"/>
    <path d="M10 16l2-2 2 2" stroke="#22d3ee" stroke-width="1.5" stroke-linecap="round" stroke-linejoin="round" opacity="0.7"/>
  </g>
  
  <!-- Text: FLIXA -->
  <g transform="translate(20, 0)" filter="url(#glow)">
    <!-- F -->
    <path d="M0 5h10v2.5H3.5v2.5h6v2.5h-6v5.5H0V5z" fill="url(#textGradient)"/>
    
    <!-- L -->
    <path d="M14 5h3.5v11h6.5v2.5H14V5z" fill="url(#textGradient)"/>
    
    <!-- I -->
    <path d="M28 5h3.5v13.5H28V5z" fill="url(#textGradient)"/>
    
    <!-- X -->
    <path d="M36 5h3.5l2.5 4 2.5-4h3.5l-4 6.5 4 7h-3.5l-2.5-4-2.5 4h-3.5l4-7-4-6.5z" fill="url(#textGradient)"/>
    
    <!-- A -->
    <path d="M56 5h3.5l5 13.5h-3.5l-.8-2.5h-5.4l-.8 2.5h-3.5L56 5zm1.75 8.5h2.5l-1.25-4-1.25 4z" fill="url(#textGradient)"/>
  </g>
  
  <!-- Decorative elements -->
  <g opacity="0.6">
    <circle cx="102" cy="8" r="1.5" fill="#22d3ee">
      <animate attributeName="opacity" values="0.6;1;0.6" dur="2s" repeatCount="indefinite"/>
    </circle>
    <circle cx="105" cy="14" r="1" fill="#6c6cff">
      <animate attributeName="opacity" values="0.4;0.8;0.4" dur="2.5s" repeatCount="indefinite"/>
    </circle>
    <circle cx="102" cy="20" r="1.2" fill="#a855f7">
      <animate attributeName="opacity" values="0.5;0.9;0.5" dur="3s" repeatCount="indefinite"/>
    </circle>
  </g>
</svg>