<svg xmlns="http://www.w3.org/2000/svg" viewBox="0 0 64 64">
  <defs>
    <linearGradient id="g" x1="0" y1="0" x2="1" y2="1">
      <stop offset="0%" stop-color="#6C6CFF"/>
      <stop offset="100%" stop-color="#22D3EE"/>
    </linearGradient>
  </defs>
  <rect x="4" y="4" width="56" height="56" rx="14" fill="#0B0B10"/>
  <g transform="translate(12,12)">
    <path d="M18 6c3.866 0 7 3.134 7 7v2h3c3.866 0 7 3.134 7 7s-3.134 7-7 7H26v2c0 3.866-3.134 7-7 7s-7-3.134-7-7v-2h-3c-3.866 0-7-3.134-7-7s3.134-7 7-7h3v-2c0-3.866 3.134-7 7-7z" fill="url(#g)"/>
    <rect x="10" y="17" width="16" height="2.5" rx="1.25" fill="#FFFFFF" opacity="0.9"/>
    <rect x="16" y="22" width="16" height="2.5" rx="1.25" fill="#FFFFFF" opacity="0.7"/>
  </g>
</svg>

